<svg width="269" height="38" viewBox="0 0 269 38" fill="none" xmlns="http://www.w3.org/2000/svg">
<path d="M9.16 19.14H17.22L16.84 17.87Q15.39 13.29 14.48 10.17Q13.57 7.05 13.36 6.25L13.19 5.4Q12.81 7.52 9.54 17.91ZM20.61 30 18.57 23.51H7.76L5.72 30H0.12L9.79 1.41H16.71L26.38 30ZM34.69 8.5V12.31Q36.18 8.33 40.12 8.33Q41.01 8.33 41.56 8.45V13.37Q40.59 12.95 39.4 12.95Q37.32 12.95 36.01 14.65Q34.69 16.34 34.69 18.89V30H29.56L29.6 8.5ZM47.97 19.31Q48.05 22.37 49.81 24.23Q51.57 26.1 54.58 26.1Q57.21 26.1 59.46 24.66V29.07Q57.21 30.38 53.86 30.38Q48.9 30.38 45.82 27.24Q42.75 24.1 42.75 19.31Q42.79 14.6 45.82 11.38Q48.86 8.16 54.12 8.16Q57.25 8.16 59.46 9.34V13.84Q57.34 12.48 54.63 12.48Q51.66 12.48 49.83 14.35Q48.01 16.22 47.97 19.31ZM69.34 12.31V23.26Q69.34 24.61 70.06 25.31Q70.78 26.01 72.06 26.01Q73.67 26.01 75.03 25.12V29.49Q73.54 30.21 71.21 30.21Q64.25 30.21 64.25 23.17V12.31H61.03V8.5H64.25V3.32H69.34V8.5H74.69V12.31ZM78.76 30V8.5H83.85V30ZM78.25 2.05Q78.25 0.78 79.14 -0.11Q80.03 -1.01 81.3 -1.01Q82.57 -1.01 83.47 -0.11Q84.36 0.78 84.36 2.05Q84.36 3.36 83.47 4.25Q82.57 5.14 81.3 5.14Q80.03 5.14 79.14 4.25Q78.25 3.36 78.25 2.05ZM92.97 19.31Q93.05 22.37 94.81 24.23Q96.57 26.1 99.58 26.1Q102.21 26.1 104.46 24.66V29.07Q102.21 30.38 98.86 30.38Q93.9 30.38 90.82 27.24Q87.75 24.1 87.75 19.31Q87.79 14.6 90.82 11.38Q93.86 8.16 99.12 8.16Q102.25 8.16 104.46 9.34V13.84Q102.34 12.48 99.62 12.48Q96.66 12.48 94.83 14.35Q93.01 16.22 92.97 19.31ZM123.54 15.96H126.56Q129.48 15.96 130.93 14.56Q132.37 13.16 132.37 10.79Q132.37 8.45 130.93 7.12Q129.48 5.78 126.68 5.78H123.54ZM118.2 1.41H127.15Q131.99 1.41 134.89 4.04Q137.8 6.67 137.8 10.79Q137.8 15.15 134.81 17.72Q131.82 20.29 127.28 20.29H123.54V30H118.2ZM141.1 30V0.01H146.19V30ZM162.23 20.75H159.6Q157.6 20.75 156.54 21.58Q155.48 22.41 155.48 23.68Q155.48 26.39 158.62 26.39Q160.32 26.39 161.27 25.4Q162.23 24.4 162.23 22.79ZM151.79 14.31V9.6Q154.21 8.11 158.75 8.11Q167.48 8.11 167.48 16.26V30H162.44V27.41Q160.95 30.17 156.84 30.17Q153.78 30.17 151.98 28.39Q150.18 26.61 150.18 23.89Q150.18 20.84 152.47 19.1Q154.76 17.36 159.09 17.36H162.23V16.05Q162.23 14.26 161.29 13.33Q160.36 12.4 158.11 12.4Q154.68 12.4 151.79 14.31ZM178.26 12.31V23.26Q178.26 24.61 178.98 25.31Q179.7 26.01 180.97 26.01Q182.58 26.01 183.94 25.12V29.49Q182.46 30.21 180.12 30.21Q173.17 30.21 173.17 23.17V12.31H169.94V8.5H173.17V3.32H178.26V8.5H183.6V12.31ZM199.42 -0.07V4.21Q198.32 3.79 197.3 3.79Q194.2 3.79 194.2 7.27V8.5H198.49V12.31H194.2V30H189.11V12.31H185.98V8.5H189.11V7.22Q189.11 3.62 191.11 1.58Q193.1 -0.45 196.62 -0.45Q198.23 -0.45 199.42 -0.07ZM210.41 30.34Q205.53 30.34 202.79 27.29Q200.06 24.23 200.06 19.48Q200.06 14.56 202.9 11.36Q205.74 8.16 210.41 8.16Q215.37 8.16 218.08 11.27Q220.8 14.39 220.8 19.18Q220.8 24.06 218.06 27.2Q215.33 30.34 210.41 30.34ZM210.41 12.31Q207.99 12.31 206.69 14.31Q205.4 16.3 205.4 19.31Q205.4 22.28 206.72 24.27Q208.03 26.27 210.45 26.27Q212.95 26.27 214.22 24.32Q215.5 22.37 215.5 19.35Q215.5 16.26 214.27 14.29Q213.04 12.31 210.41 12.31ZM229.58 8.5V12.31Q231.06 8.33 235.01 8.33Q235.9 8.33 236.45 8.45V13.37Q235.47 12.95 234.28 12.95Q232.21 12.95 230.89 14.65Q229.58 16.34 229.58 18.89V30H224.44L224.49 8.5ZM243.87 8.5V11.89Q245.69 8.24 249.94 8.24Q254.64 8.24 256.04 12.31Q256.89 10.36 258.59 9.3Q260.28 8.24 262.45 8.24Q265.71 8.24 267.49 10.21Q269.28 12.19 269.28 15.83V30H264.14V16.81Q264.14 12.48 260.84 12.48Q259.18 12.48 257.89 13.92Q256.59 15.37 256.59 18.46V30H251.46V16.81Q251.46 12.48 248.15 12.48Q246.5 12.48 245.18 13.92Q243.87 15.37 243.87 18.46V30H238.78V8.5Z" fill="#249EDC"/>
</svg>
